<svg width="150" height="50" viewBox="0 0 150 50" fill="none" xmlns="http://www.w3.org/2000/svg">
<path d="M66.3008 21V8.20312H70.6865C72.1338 8.20312 73.2354 8.49316 73.9912 9.07324C74.7471 9.65332 75.125 10.5176 75.125 11.666C75.125 12.252 74.9668 12.7793 74.6504 13.248C74.334 13.7168 73.8711 14.0801 73.2617 14.3379C73.9531 14.5254 74.4863 14.8799 74.8613 15.4014C75.2422 15.917 75.4326 16.5381 75.4326 17.2646C75.4326 18.4658 75.0459 19.3887 74.2725 20.0332C73.5049 20.6777 72.4033 21 70.9678 21H66.3008ZM68.5244 15.2256V19.2246H70.9941C71.6914 19.2246 72.2363 19.0518 72.6289 18.7061C73.0215 18.3604 73.2178 17.8799 73.2178 17.2646C73.2178 15.9346 72.5381 15.2549 71.1787 15.2256H68.5244ZM68.5244 13.5908H70.7041C71.3955 13.5908 71.9346 13.4355 72.3213 13.125C72.7139 12.8086 72.9102 12.3633 72.9102 11.7891C72.9102 11.1562 72.7285 10.6992 72.3652 10.418C72.0078 10.1367 71.4482 9.99609 70.6865 9.99609H68.5244V13.5908ZM81.8799 19.2246H87.6895V21H79.6562V8.20312H81.8799V19.2246ZM100.544 8.20312V16.7549C100.544 18.1143 100.107 19.1924 99.2344 19.9893C98.3672 20.7803 97.21 21.1758 95.7627 21.1758C94.2979 21.1758 93.1348 20.7861 92.2734 20.0068C91.4121 19.2217 90.9814 18.1348 90.9814 16.7461V8.20312H93.1963V16.7637C93.1963 17.6191 93.4131 18.2725 93.8467 18.7236C94.2803 19.1748 94.9189 19.4004 95.7627 19.4004C97.4736 19.4004 98.3291 18.498 98.3291 16.6934V8.20312H100.544ZM112.405 15.2871H107.149V19.2246H113.293V21H104.926V8.20312H113.231V9.99609H107.149V13.5293H112.405V15.2871ZM68.5244 37.2451V42H66.3008V29.2031H71.1963C72.626 29.2031 73.7598 29.5752 74.5977 30.3193C75.4414 31.0635 75.8633 32.0479 75.8633 33.2725C75.8633 34.5264 75.4502 35.502 74.624 36.1992C73.8037 36.8965 72.6523 37.2451 71.1699 37.2451H68.5244ZM68.5244 35.4609H71.1963C71.9873 35.4609 72.5908 35.2764 73.0068 34.9072C73.4229 34.5322 73.6309 33.9932 73.6309 33.29C73.6309 32.5986 73.4199 32.0479 72.998 31.6377C72.5762 31.2217 71.9961 31.0078 71.2578 30.9961H68.5244V35.4609ZM82.1611 42H79.9463V29.2031H82.1611V42ZM91.4561 33.8262L94.1455 29.2031H96.7119L92.8447 35.5488L96.7998 42H94.207L91.4561 37.3066L88.6963 42H86.1123L90.0762 35.5488L86.2002 29.2031H88.7666L91.4561 33.8262ZM107.923 36.2871H102.667V40.2246H108.811V42H100.443V29.2031H108.749V30.9961H102.667V34.5293H107.923V36.2871ZM114.845 40.2246H120.654V42H112.621V29.2031H114.845V40.2246Z" fill="#202020"/>
<path d="M5 0H0V5H5V0Z" fill="#0F6587"/>
<path d="M10 0H5V5H10V0Z" fill="#106B90"/>
<path d="M15 0H10V5H15V0Z" fill="#10688C"/>
<path d="M20 0H15V5H20V0Z" fill="#106B90"/>
<path d="M25 0H20V5H25V0Z" fill="#10688C"/>
<path d="M30 0H25V5H30V0Z" fill="#1E7497"/>
<path d="M35 0H30V5H35V0Z" fill="#10688C"/>
<path d="M40 0H35V5H40V0Z" fill="#10688C"/>
<path d="M45 0H40V5H45V0Z" fill="#106B90"/>
<path d="M50 0H45V5H50V0Z" fill="#10688C"/>
<path d="M5 5H0V10H5V5Z" fill="#106B90"/>
<path d="M10 5H5V10H10V5Z" fill="#0F6587"/>
<path d="M15 5H10V10H15V5Z" fill="#0F6587"/>
<path d="M20 5H15V10H20V5Z" fill="#1E7497"/>
<path d="M25 5H20V10H25V5Z" fill="#1E7497"/>
<path d="M30 5H25V10H30V5Z" fill="#176F93"/>
<path d="M35 5H30V10H35V5Z" fill="#10688C"/>
<path d="M40 5H35V10H40V5Z" fill="#1E7497"/>
<path d="M45 5H40V10H45V5Z" fill="#106B90"/>
<path d="M50 5H45V10H50V5Z" fill="#10688C"/>
<path d="M5 10H0V15H5V10Z" fill="#0F6587"/>
<path d="M10 10H5V15H10V10Z" fill="#106B90"/>
<path d="M45 10H40V15H45V10Z" fill="#0F6587"/>
<path d="M50 10H45V15H50V10Z" fill="#10688C"/>
<path d="M5 15H0V20H5V15Z" fill="#0F6587"/>
<path d="M10 15H5V20H10V15Z" fill="#176F93"/>
<path d="M45 15H40V20H45V15Z" fill="#0F6587"/>
<path d="M50 15H45V20H50V15Z" fill="#0F6587"/>
<path d="M5 20H0V25H5V20Z" fill="#10688C"/>
<path d="M10 20H5V25H10V20Z" fill="#176F93"/>
<path d="M45 20H40V25H45V20Z" fill="#106B90"/>
<path d="M50 20H45V25H50V20Z" fill="#0F6587"/>
<path d="M5 25H0V30H5V25Z" fill="#1E7497"/>
<path d="M10 25H5V30H10V25Z" fill="#176F93"/>
<path d="M45 25H40V30H45V25Z" fill="#10688C"/>
<path d="M50 25H45V30H50V25Z" fill="#1E7497"/>
<path d="M5 30H0V35H5V30Z" fill="#1E7497"/>
<path d="M10 30H5V35H10V30Z" fill="#176F93"/>
<path d="M45 30H40V35H45V30Z" fill="#0F6587"/>
<path d="M50 30H45V35H50V30Z" fill="#10688C"/>
<path d="M5 35H0V40H5V35Z" fill="#1E7497"/>
<path d="M10 35H5V40H10V35Z" fill="#106B90"/>
<path d="M45 35H40V40H45V35Z" fill="#0F6587"/>
<path d="M50 35H45V40H50V35Z" fill="#0F6587"/>
<path d="M5 40H0V45H5V40Z" fill="#106B90"/>
<path d="M10 40H5V45H10V40Z" fill="#0F6587"/>
<path d="M15 40H10V45H15V40Z" fill="#10688C"/>
<path d="M20 40H15V45H20V40Z" fill="#1E7497"/>
<path d="M25 40H20V45H25V40Z" fill="#176F93"/>
<path d="M30 40H25V45H30V40Z" fill="#10688C"/>
<path d="M35 40H30V45H35V40Z" fill="#1E7497"/>
<path d="M40 40H35V45H40V40Z" fill="#176F93"/>
<path d="M45 40H40V45H45V40Z" fill="#176F93"/>
<path d="M50 40H45V45H50V40Z" fill="#0F6587"/>
<path d="M5 45H0V50H5V45Z" fill="#106B90"/>
<path d="M10 45H5V50H10V45Z" fill="#106B90"/>
<path d="M15 45H10V50H15V45Z" fill="#10688C"/>
<path d="M20 45H15V50H20V45Z" fill="#1E7497"/>
<path d="M25 45H20V50H25V45Z" fill="#0F6587"/>
<path d="M30 45H25V50H30V45Z" fill="#106B90"/>
<path d="M35 45H30V50H35V45Z" fill="#0F6587"/>
<path d="M40 45H35V50H40V45Z" fill="#0F6587"/>
<path d="M45 45H40V50H45V45Z" fill="#1E7497"/>
<path d="M50 45H45V50H50V45Z" fill="#1E7497"/>
<path d="M15 10H10V15H15V10Z" fill="#179DD3"/>
<path d="M20 10H15V15H20V10Z" fill="#18A2DA"/>
<path d="M25 10H20V15H25V10Z" fill="#1FA5DB"/>
<path d="M30 10H25V15H30V10Z" fill="#179DD3"/>
<path d="M35 10H30V15H35V10Z" fill="#179DD3"/>
<path d="M40 10H35V15H40V10Z" fill="#18A2DA"/>
<path d="M15 15H10V20H15V15Z" fill="#18A2DA"/>
<path d="M20 15H15V20H20V15Z" fill="#179DD3"/>
<path d="M25 15H20V20H25V15Z" fill="#26A8DC"/>
<path d="M30 15H25V20H30V15Z" fill="#26A8DC"/>
<path d="M35 15H30V20H35V15Z" fill="#18A2DA"/>
<path d="M40 15H35V20H40V15Z" fill="#1798CD"/>
<path d="M15 20H10V25H15V20Z" fill="#1FA5DB"/>
<path d="M20 20H15V25H20V20Z" fill="#1798CD"/>
<path d="M25 20H20V25H25V20Z" fill="#18A2DA"/>
<path d="M30 20H25V25H30V20Z" fill="#1798CD"/>
<path d="M35 20H30V25H35V20Z" fill="#1798CD"/>
<path d="M40 20H35V25H40V20Z" fill="#18A2DA"/>
<path d="M15 25H10V30H15V25Z" fill="#1FA5DB"/>
<path d="M20 25H15V30H20V25Z" fill="#179DD3"/>
<path d="M25 25H20V30H25V25Z" fill="#179DD3"/>
<path d="M30 25H25V30H30V25Z" fill="#18A2DA"/>
<path d="M35 25H30V30H35V25Z" fill="#179DD3"/>
<path d="M40 25H35V30H40V25Z" fill="#26A8DC"/>
<path d="M15 30H10V35H15V30Z" fill="#1798CD"/>
<path d="M20 30H15V35H20V30Z" fill="#26A8DC"/>
<path d="M25 30H20V35H25V30Z" fill="#18A2DA"/>
<path d="M30 30H25V35H30V30Z" fill="#179DD3"/>
<path d="M35 30H30V35H35V30Z" fill="#1FA5DB"/>
<path d="M40 30H35V35H40V30Z" fill="#1798CD"/>
<path d="M15 35H10V40H15V35Z" fill="#26A8DC"/>
<path d="M20 35H15V40H20V35Z" fill="#18A2DA"/>
<path d="M25 35H20V40H25V35Z" fill="#26A8DC"/>
<path d="M30 35H25V40H30V35Z" fill="#26A8DC"/>
<path d="M35 35H30V40H35V35Z" fill="#179DD3"/>
<path d="M40 35H35V40H40V35Z" fill="#18A2DA"/>
</svg>
