<svg width="73" height="64" viewBox="0 0 73 64" fill="none" xmlns="http://www.w3.org/2000/svg">
<path d="M0 21.8295V24.8062L0.5 27.7829L1.5 30.7597L3 32.7442L5 34.7287L8.5 37.2093L12 39.1938L15 41.1783L18 42.6667L21 44.155L23 46.6357L25 48.6202L27 51.5969L29 54.0775L31.5 57.5504L34 60.031L37.5 62.0155L40 63.0078L43.5 64H48L51 63.5039L54.5 63.0078L57.5 62.0155L59.5 60.5271L62 58.5426L64 57.0543L66 54.5736L67 52.093L68 49.6124L69.5 47.6279L70 46.1395L71 45.1473L72 43.1628L72.5 39.6899L73 36.2171V32.7442V29.7674V26.7907L72.5 23.814L71 20.8372L69.5 17.8605L68 14.8837L66 12.8992L64.5 10.9147L62.5 8.93023L60.5 6.94574L58.5 5.45736L56.5 4.46512L54 3.47287L51 1.9845L48 0.992248L45 0.496124L42.5 0H41H37H34.5L32.5 0.496124L29 0.992248L25 1.9845L22.5 2.97674L19.5 3.96899L16 5.45736L13 6.94574L9.5 8.93023L7.5 9.92248L5 11.907L3.5 13.8915L1.5 16.8682L0.5 18.8527L0 21.8295Z" fill="#2B72F5" fill-opacity="0.1"/>
<path d="M8.5 46.1395V45.1473L9 44.6512H9.5L10.0306 44.8604L11 45.1473H12H13L14.5 46.1395L15.5 47.1318L16.5 47.6279L17.5 48.124L18.5 49.1163L19.5 50.1085L20 51.1008L20.25 51.5969V52.0209L20.2006 52.3901L19.9012 52.6872L19.5 53.0853L19 53.5814L18.5 53.8295L18.25 53.9535L18.125 54.0155C18.125 54.0155 18.0522 54.0616 18 54.0775C17.9067 54.106 17.75 54.0775 17.75 54.0775H17.5H17H16.5H15H13.5L12.5 53.5814L11.5 53.0853L11 52.5891L10 51.5969L9.5 50.6047L9 50.1085V49.1163L8.5 48.124V47.1318V46.1395Z" fill="#2B72F5" fill-opacity="0.1"/>
<path d="M41 23.2C42.3085 23.2 43.5633 23.7057 44.4885 24.6059C45.4138 25.5061 45.9335 26.727 45.9335 28C45.9335 29.273 45.4138 30.4939 44.4885 31.3941C43.5633 32.2943 42.3085 32.8 41 32.8C39.6915 32.8 38.4367 32.2943 37.5115 31.3941C36.5862 30.4939 36.0665 29.273 36.0665 28C36.0665 26.727 36.5862 25.5061 37.5115 24.6059C38.4367 23.7057 39.6915 23.2 41 23.2ZM41 25.6C40.3458 25.6 39.7183 25.8529 39.2557 26.3029C38.7931 26.753 38.5332 27.3635 38.5332 28C38.5332 28.6365 38.7931 29.247 39.2557 29.6971C39.7183 30.1471 40.3458 30.4 41 30.4C41.6542 30.4 42.2817 30.1471 42.7443 29.6971C43.2069 29.247 43.4668 28.6365 43.4668 28C43.4668 27.3635 43.2069 26.753 42.7443 26.3029C42.2817 25.8529 41.6542 25.6 41 25.6ZM38.5332 40C38.2249 40 37.9659 39.784 37.9165 39.496L37.4602 36.316C36.6832 36.016 36.0171 35.608 35.3758 35.128L32.3046 36.34C32.0333 36.436 31.7003 36.34 31.5523 36.076L29.0855 31.924C28.9252 31.66 28.9992 31.336 29.2335 31.156L31.836 29.164L31.7496 28L31.836 26.8L29.2335 24.844C28.9992 24.664 28.9252 24.34 29.0855 24.076L31.5523 19.924C31.7003 19.66 32.0333 19.552 32.3046 19.66L35.3758 20.86C36.0171 20.392 36.6832 19.984 37.4602 19.684L37.9165 16.504C37.9659 16.216 38.2249 16 38.5332 16H43.4668C43.7751 16 44.0341 16.216 44.0835 16.504L44.5398 19.684C45.3168 19.984 45.9829 20.392 46.6242 20.86L49.6954 19.66C49.9667 19.552 50.2997 19.66 50.4477 19.924L52.9145 24.076C53.0748 24.34 53.0008 24.664 52.7665 24.844L50.164 26.8L50.2504 28L50.164 29.2L52.7665 31.156C53.0008 31.336 53.0748 31.66 52.9145 31.924L50.4477 36.076C50.2997 36.34 49.9667 36.448 49.6954 36.34L46.6242 35.14C45.9829 35.608 45.3168 36.016 44.5398 36.316L44.0835 39.496C44.0341 39.784 43.7751 40 43.4668 40H38.5332ZM40.075 18.4L39.6186 21.532C38.1385 21.832 36.8312 22.6 35.8815 23.668L32.909 22.42L31.984 23.98L34.5864 25.84C34.0931 27.244 34.0931 28.768 34.5864 30.16L31.9716 32.032L32.8967 33.592L35.8938 32.344C36.8435 33.4 38.1385 34.168 39.6063 34.456L40.0626 37.6H41.9374L42.3937 34.468C43.8615 34.168 45.1565 33.4 46.1062 32.344L49.1033 33.592L50.0284 32.032L47.4136 30.172C47.9069 28.768 47.9069 27.244 47.4136 25.84L50.016 23.98L49.091 22.42L46.1185 23.668C45.1688 22.6 43.8615 21.832 42.3814 21.544L41.925 18.4H40.075Z" fill="#2B72F5" fill-opacity="0.9"/>
</svg>
