<svg width="73" height="64" viewBox="0 0 73 64" fill="none" xmlns="http://www.w3.org/2000/svg">
<path d="M0 21.8295V24.8062L0.5 27.7829L1.5 30.7597L3 32.7442L5 34.7287L8.5 37.2093L12 39.1938L15 41.1783L18 42.6667L21 44.155L23 46.6357L25 48.6202L27 51.5969L29 54.0775L31.5 57.5504L34 60.031L37.5 62.0155L40 63.0078L43.5 64H48L51 63.5039L54.5 63.0078L57.5 62.0155L59.5 60.5271L62 58.5426L64 57.0543L66 54.5736L67 52.093L68 49.6124L69.5 47.6279L70 46.1395L71 45.1473L72 43.1628L72.5 39.6899L73 36.2171V32.7442V29.7674V26.7907L72.5 23.814L71 20.8372L69.5 17.8605L68 14.8837L66 12.8992L64.5 10.9147L62.5 8.93023L60.5 6.94574L58.5 5.45736L56.5 4.46512L54 3.47287L51 1.9845L48 0.992248L45 0.496124L42.5 0H41H37H34.5L32.5 0.496124L29 0.992248L25 1.9845L22.5 2.97674L19.5 3.96899L16 5.45736L13 6.94574L9.5 8.93023L7.5 9.92248L5 11.907L3.5 13.8915L1.5 16.8682L0.5 18.8527L0 21.8295Z" fill="#2B72F5" fill-opacity="0.1"/>
<path d="M8.5 46.1395V45.1473L9 44.6512H9.5L10.0306 44.8604L11 45.1473H12H13L14.5 46.1395L15.5 47.1318L16.5 47.6279L17.5 48.124L18.5 49.1163L19.5 50.1085L20 51.1008L20.25 51.5969V52.0209L20.2006 52.3901L19.9012 52.6872L19.5 53.0853L19 53.5814L18.5 53.8295L18.25 53.9535L18.125 54.0155C18.125 54.0155 18.0522 54.0616 18 54.0775C17.9067 54.106 17.75 54.0775 17.75 54.0775H17.5H17H16.5H15H13.5L12.5 53.5814L11.5 53.0853L11 52.5891L10 51.5969L9.5 50.6047L9 50.1085V49.1163L8.5 48.124V47.1318V46.1395Z" fill="#2B72F5" fill-opacity="0.1"/>
<path d="M26.7835 33.4344L33.1891 33.2129L32.9659 39.5689L26.7835 33.4344Z" stroke="#2B72F5" stroke-opacity="0.4" stroke-width="2"/>
<path d="M33.7501 23.7958L44.0317 23.4402L43.6734 33.6422L33.7501 23.7958Z" stroke="#2B72F5" stroke-opacity="0.9" stroke-width="2"/>
<path d="M40.7839 13.3228L55.2115 12.8239L54.7087 27.1397L40.7839 13.3228Z" stroke="#2B72F5" stroke-opacity="0.6" stroke-width="2"/>
</svg>
