<svg width="88" height="88" viewBox="0 0 88 88" fill="none" xmlns="http://www.w3.org/2000/svg">
<g filter="url(#filter0_d)">
<rect x="4" width="80" height="80" rx="10" fill="#F2CC78"/>
<path d="M31.1504 49.1641C29.041 48.5723 27.9863 47.21 27.9863 45.0771V43.3281C27.9863 42.0918 27.4648 41.4736 26.4219 41.4736V39.6543C27.4414 39.6543 27.9629 39.0713 27.9863 37.9053V36.042C27.9863 34.958 28.25 34.082 28.7773 33.4141C29.3047 32.7461 30.0957 32.2627 31.1504 31.9639L31.6426 33.3789C31.1973 33.543 30.8604 33.8301 30.6318 34.2402C30.4033 34.6445 30.2832 35.207 30.2715 35.9277V37.7734C30.2715 39.0977 29.7471 40.0264 28.6982 40.5596C29.7471 41.0986 30.2715 42.0332 30.2715 43.3633V45.2266C30.3008 46.5977 30.7578 47.4355 31.6426 47.7402L31.1504 49.1641ZM38.4277 46C38.3105 45.7715 38.2256 45.4873 38.1729 45.1475C37.5576 45.833 36.7578 46.1758 35.7734 46.1758C34.8418 46.1758 34.0684 45.9062 33.4531 45.3672C32.8438 44.8281 32.5391 44.1484 32.5391 43.3281C32.5391 42.3203 32.9111 41.5469 33.6553 41.0078C34.4053 40.4688 35.4863 40.1963 36.8984 40.1904H38.0674V39.6455C38.0674 39.2061 37.9531 38.8545 37.7246 38.5908C37.502 38.3271 37.1475 38.1953 36.6611 38.1953C36.2334 38.1953 35.8965 38.2979 35.6504 38.5029C35.4102 38.708 35.29 38.9893 35.29 39.3467H32.75C32.75 38.7959 32.9199 38.2861 33.2598 37.8174C33.5996 37.3486 34.0801 36.9824 34.7012 36.7188C35.3223 36.4492 36.0195 36.3145 36.793 36.3145C37.9648 36.3145 38.8936 36.6104 39.5791 37.2021C40.2705 37.7881 40.6162 38.6143 40.6162 39.6807V43.8027C40.6221 44.7051 40.748 45.3877 40.9941 45.8506V46H38.4277ZM36.3271 44.2334C36.7021 44.2334 37.0479 44.1514 37.3643 43.9873C37.6807 43.8174 37.915 43.5918 38.0674 43.3105V41.6758H37.1182C35.8467 41.6758 35.1699 42.1152 35.0879 42.9941L35.0791 43.1436C35.0791 43.46 35.1904 43.7207 35.4131 43.9258C35.6357 44.1309 35.9404 44.2334 36.3271 44.2334ZM51.1279 41.333C51.1279 42.7979 50.7939 43.9727 50.126 44.8574C49.4639 45.7363 48.5674 46.1758 47.4365 46.1758C46.4756 46.1758 45.6992 45.8418 45.1074 45.1738V49.6562H42.5674V36.4902H44.9229L45.0107 37.4219C45.626 36.6836 46.4287 36.3145 47.4189 36.3145C48.5908 36.3145 49.502 36.748 50.1523 37.6152C50.8027 38.4824 51.1279 39.6777 51.1279 41.2012V41.333ZM48.5879 41.1484C48.5879 40.2637 48.4297 39.5811 48.1133 39.1006C47.8027 38.6201 47.3486 38.3799 46.751 38.3799C45.9541 38.3799 45.4062 38.6846 45.1074 39.2939V43.1875C45.418 43.8145 45.9717 44.1279 46.7686 44.1279C47.9814 44.1279 48.5879 43.1348 48.5879 41.1484ZM55.3906 46H52.8418V36.4902H55.3906V46ZM52.6924 34.0293C52.6924 33.6484 52.8184 33.335 53.0703 33.0889C53.3281 32.8428 53.6768 32.7197 54.1162 32.7197C54.5498 32.7197 54.8955 32.8428 55.1533 33.0889C55.4111 33.335 55.54 33.6484 55.54 34.0293C55.54 34.416 55.4082 34.7324 55.1445 34.9785C54.8867 35.2246 54.5439 35.3477 54.1162 35.3477C53.6885 35.3477 53.3428 35.2246 53.0791 34.9785C52.8213 34.7324 52.6924 34.416 52.6924 34.0293ZM56.8145 47.7402C57.7051 47.4238 58.1621 46.5742 58.1855 45.1914V43.3281C58.1855 42.0039 58.7217 41.084 59.7939 40.5684C58.7217 40.0527 58.1855 39.1182 58.1855 37.7646V35.9277C58.1621 34.5625 57.7051 33.7129 56.8145 33.3789L57.3066 31.9639C58.3555 32.2568 59.1436 32.7373 59.6709 33.4053C60.1982 34.0674 60.4648 34.9375 60.4707 36.0156V37.9053C60.4941 39.0713 61.0156 39.6543 62.0352 39.6543V41.4736C60.9922 41.4736 60.4707 42.0859 60.4707 43.3105V45.2178C60.4238 47.2686 59.3691 48.584 57.3066 49.1641L56.8145 47.7402Z" fill="#FAFBFC"/>
</g>
<defs>
<filter id="filter0_d" x="0" y="0" width="88" height="88" filterUnits="userSpaceOnUse" color-interpolation-filters="sRGB">
<feFlood flood-opacity="0" result="BackgroundImageFix"/>
<feColorMatrix in="SourceAlpha" type="matrix" values="0 0 0 0 0 0 0 0 0 0 0 0 0 0 0 0 0 0 127 0"/>
<feOffset dy="4"/>
<feGaussianBlur stdDeviation="2"/>
<feColorMatrix type="matrix" values="0 0 0 0 0 0 0 0 0 0 0 0 0 0 0 0 0 0 0.05 0"/>
<feBlend mode="normal" in2="BackgroundImageFix" result="effect1_dropShadow"/>
<feBlend mode="normal" in="SourceGraphic" in2="effect1_dropShadow" result="shape"/>
</filter>
</defs>
</svg>
