<svg width="52" height="40" viewBox="0 0 52 40" fill="none" xmlns="http://www.w3.org/2000/svg">
<path d="M23.1186 15.136C24.2945 14.5092 25.7055 14.5092 26.8814 15.136L41.2513 22.7951C44.076 24.3007 44.076 28.3493 41.2513 29.8549L26.8814 37.514C25.7055 38.1408 24.2945 38.1408 23.1186 37.514L8.74874 29.8549C5.92399 28.3493 5.92399 24.3007 8.74874 22.7951L23.1186 15.136Z" stroke="#202020" stroke-width="2"/>
<path d="M23.1186 8.63598C24.2945 8.00918 25.7055 8.00918 26.8814 8.63598L41.2513 16.2951C44.076 17.8007 44.076 21.8493 41.2513 23.3549L26.8814 31.014C25.7055 31.6408 24.2945 31.6408 23.1186 31.014L8.74874 23.3549C5.92399 21.8493 5.92399 17.8007 8.74874 16.2951L23.1186 8.63598Z" fill="white" stroke="#202020" stroke-width="2"/>
<path d="M23.1186 2.13598C24.2945 1.50918 25.7055 1.50918 26.8814 2.13598L41.2513 9.7951C44.076 11.3007 44.076 15.3493 41.2513 16.8549L26.8814 24.514C25.7055 25.1408 24.2945 25.1408 23.1186 24.514L8.74874 16.8549C5.92399 15.3493 5.92399 11.3007 8.74874 9.7951L23.1186 2.13598Z" fill="white" stroke="#202020" stroke-width="2"/>
<path d="M46.2782 21.3807L46.3522 21.7546L46.7323 21.7824C49.4022 21.9775 51.5 24.1732 51.5 26.875C51.5 27.548 51.3674 28.2145 51.1099 28.8363C50.8523 29.458 50.4748 30.023 49.9989 30.4989C49.523 30.9748 48.958 31.3523 48.3363 31.6099C47.7145 31.8674 47.048 32 46.375 32H31.75C30.0924 32 28.5027 31.3415 27.3306 30.1694C26.1585 28.9973 25.5 27.4076 25.5 25.75C25.5 22.5211 27.9369 19.8746 31.0732 19.5308L31.3383 19.5017L31.4618 19.2655C32.7854 16.7348 35.4424 15 38.5 15C42.3518 15 45.5587 17.7405 46.2782 21.3807Z" fill="#202020" stroke="#FAFBFC"/>
</svg>
