<svg width="88" height="88" viewBox="0 0 88 88" fill="none" xmlns="http://www.w3.org/2000/svg">
<g filter="url(#filter0_d)">
<rect x="4" width="80" height="80" rx="10" fill="#F2CC78"/>
<path d="M39.6 55.0975C37.6975 56.2837 34.3023 57.2653 32.0837 57.1955C29.8651 57.1257 27.7144 56.3952 25.8897 55.0917C24.065 53.7882 22.6439 51.9672 21.797 49.8472C20.9501 47.7272 20.7134 45.3983 21.1153 43.1401C21.5172 40.882 22.5406 38.7905 24.0627 37.1168C25.5848 35.4432 27.5409 34.2584 29.6961 33.7048C30.5646 33.4817 31.4505 33.3649 32.3362 33.3536L35.6843 33.8231C35.8615 33.8762 36.0377 33.9338 36.2127 33.9958C37.8234 34.5665 39.2848 35.497 40.4969 36.7138C41.1083 37.3276 40.9776 38.344 40.298 38.897C39.6151 39.4526 38.6385 39.325 37.994 38.7414C37.178 38.0024 36.2269 37.431 35.1911 37.064C33.6632 36.5226 32.0158 36.4491 30.4468 36.8521C28.8777 37.2552 27.4537 38.1177 26.3455 39.3362C25.2374 40.5546 24.4923 42.0773 24.1997 43.7213C23.9071 45.3653 24.0795 47.0607 24.696 48.6042C25.3126 50.1476 26.3472 51.4734 27.6756 52.4223C29.0041 53.3713 30.5699 53.9031 32.185 53.9539C33.8002 54.0047 36.2053 53.5849 37.5904 52.7213C37.5904 52.7213 37.2817 53.5838 37.5891 54.0971C37.9113 54.6349 39.6 55.0975 39.6 55.0975Z" fill="#FAFBFC"/>
<path d="M33.8506 33.566L32.923 33.4359L32.3362 33.3536C32.7816 31.507 33.6516 29.7732 34.8939 28.2968C36.7855 26.049 39.4165 24.545 42.3149 24.0546C45.2133 23.5642 48.1896 24.1195 50.7097 25.621C52.7228 26.8203 54.3396 28.5606 55.3867 30.6271C55.8221 31.4864 55.3326 32.4958 54.4397 32.7978C53.5734 33.0908 52.6543 32.6023 52.1952 31.7896C51.4336 30.4411 50.3293 29.3042 48.9808 28.5008C47.1461 27.4077 44.9793 27.0034 42.8692 27.3605C40.759 27.7175 38.8436 28.8124 37.4665 30.4489C36.6313 31.4415 36.0272 32.5938 35.6843 33.8231L34.7324 33.6897L33.8506 33.566Z" fill="#FAFBFC"/>
<path d="M45.6456 45.8822L44.6405 44.6881C44.7848 44.0934 48.9472 38.7914 49.2459 38.46C50.4424 37.1324 51.9427 36.1247 53.6179 35.5365C55.7522 34.7871 58.0601 34.7572 60.2091 35.4511C62.3582 36.145 64.2374 37.5269 65.576 39.3976C66.9147 41.2684 67.6436 43.5314 67.6578 45.8606C67.6719 48.1898 66.9706 50.4649 65.6549 52.3582C64.3392 54.2514 62.4769 55.6649 60.3366 56.3952C58.1962 57.1254 55.8881 57.1345 53.745 56.4213C52.0628 55.8615 50.5504 54.8793 49.3379 53.5722C48.7854 52.9766 48.9357 52.0324 49.5824 51.546C50.229 51.0596 51.1257 51.2196 51.7067 51.7853C52.538 52.5947 53.5373 53.2079 54.636 53.5736C56.1963 54.0928 57.8766 54.0861 59.4348 53.5545C60.9931 53.0229 62.3488 51.9938 63.3067 50.6155C64.2646 49.2372 64.7752 47.5808 64.7649 45.8851C64.7545 44.1894 64.2239 42.5418 63.2493 41.1799C62.2747 39.8179 60.9066 38.8119 59.342 38.3067C57.7775 37.8015 56.0973 37.8233 54.5435 38.3689C53.4493 38.7531 52.4576 39.3831 51.6363 40.2065C51.4003 40.4431 50.4909 41.7106 49.6735 42.4537C49.1731 42.9086 47.0825 46.4693 46.6504 47.3616L45.6456 45.8822Z" fill="#FAFBFC"/>
<path d="M45.6456 45.8822L46.6504 47.3616C45.7111 49.2012 43.5907 52.2059 42.0012 53.5008C40.4116 54.7956 39.6 55.0975 39.6 55.0975C39.6 55.0975 37.9113 54.6349 37.5891 54.0971C37.2817 53.5838 37.5904 52.7213 37.5904 52.7213C37.5904 52.7213 38.9259 51.9275 40.0851 50.9833C41.2442 50.0391 43.9183 46.0068 44.6405 44.6881L45.6456 45.8822Z" fill="#FAFBFC"/>
</g>
<defs>
<filter id="filter0_d" x="0" y="0" width="88" height="88" filterUnits="userSpaceOnUse" color-interpolation-filters="sRGB">
<feFlood flood-opacity="0" result="BackgroundImageFix"/>
<feColorMatrix in="SourceAlpha" type="matrix" values="0 0 0 0 0 0 0 0 0 0 0 0 0 0 0 0 0 0 127 0"/>
<feOffset dy="4"/>
<feGaussianBlur stdDeviation="2"/>
<feColorMatrix type="matrix" values="0 0 0 0 0 0 0 0 0 0 0 0 0 0 0 0 0 0 0.05 0"/>
<feBlend mode="normal" in2="BackgroundImageFix" result="effect1_dropShadow"/>
<feBlend mode="normal" in="SourceGraphic" in2="effect1_dropShadow" result="shape"/>
</filter>
</defs>
</svg>
