<svg width="50" height="40" viewBox="0 0 50 40" fill="none" xmlns="http://www.w3.org/2000/svg">
<path fill-rule="evenodd" clip-rule="evenodd" d="M11.5217 2H45C46.6569 2 48 3.34314 48 5V23.5714C48 23.7169 47.9896 23.86 47.9696 24H8.55213C8.53211 23.86 8.52175 23.7169 8.52175 23.5714V5C8.52175 3.34315 9.8649 2 11.5217 2ZM50 23.5714C50 23.7158 49.9939 23.8587 49.9819 24H50V25.1429H49.7481C49.0893 27.1344 47.2125 28.5714 45 28.5714H28.8043V33.1429H35.8416C36.1572 33.1429 36.413 33.3987 36.413 33.7143C36.413 34.0299 36.1572 34.2857 35.8416 34.2857H20.6801C20.3645 34.2857 20.1087 34.0299 20.1087 33.7143C20.1087 33.3987 20.3645 33.1429 20.6801 33.1429H27.7174V28.5714H11.5217C9.30929 28.5714 7.43246 27.1344 6.77368 25.1429H6.52174V24H6.53986C6.52787 23.8587 6.52175 23.7158 6.52175 23.5714V5C6.52175 2.23858 8.76032 0 11.5217 0H45C47.7614 0 50 2.23858 50 5V23.5714ZM8.96575 25.1429H47.556C47.0279 26 46.0807 26.5714 45 26.5714H28.7316C28.7779 26.4874 28.8043 26.3898 28.8043 26.2857C28.8043 25.9701 28.561 25.7143 28.2609 25.7143C27.9607 25.7143 27.7174 25.9701 27.7174 26.2857C27.7174 26.3898 27.7439 26.4874 27.7901 26.5714H11.5217C10.4411 26.5714 9.49385 26 8.96575 25.1429Z" fill="#2B72F5"/>
<rect width="18.4783" height="34.2857" transform="translate(0 5.71429)" fill="white"/>
<path fill-rule="evenodd" clip-rule="evenodd" d="M15.7609 6.85715H2.71739C1.81693 6.85715 1.08696 7.62466 1.08696 8.57144V37.1429C1.08696 38.0896 1.81693 38.8572 2.71739 38.8572H15.7609C16.6613 38.8572 17.3913 38.0896 17.3913 37.1429V8.57144C17.3913 7.62466 16.6613 6.85715 15.7609 6.85715ZM2.71739 5.71429C1.21662 5.71429 0 6.99348 0 8.57144V37.1429C0 38.7208 1.21662 40 2.71739 40H15.7609C17.2616 40 18.4783 38.7208 18.4783 37.1429V8.57144C18.4783 6.99348 17.2616 5.71429 15.7609 5.71429H2.71739Z" fill="#2B72F5"/>
<rect x="1.08694" y="9.17453" width="16.3043" height="1.14286" fill="#2B72F5"/>
<rect x="1.08694" y="35.4248" width="16.3043" height="1.14286" fill="#2B72F5"/>
<ellipse cx="9.23913" cy="37.721" rx="0.543478" ry="0.571429" fill="#2B72F5"/>
</svg>
