<svg width="48" height="48" viewBox="0 0 48 48" fill="none" xmlns="http://www.w3.org/2000/svg">
<path d="M6 6H42V42H6V6ZM15.46 36.08C16.26 37.78 17.84 39.18 20.54 39.18C23.54 39.18 25.6 37.58 25.6 34.08V22.52H22.2V34C22.2 35.72 21.5 36.16 20.4 36.16C19.24 36.16 18.76 35.36 18.22 34.42L15.46 36.08ZM27.42 35.72C28.42 37.68 30.44 39.18 33.6 39.18C36.8 39.18 39.2 37.52 39.2 34.46C39.2 31.64 37.58 30.38 34.7 29.14L33.86 28.78C32.4 28.16 31.78 27.74 31.78 26.74C31.78 25.92 32.4 25.28 33.4 25.28C34.36 25.28 35 25.7 35.58 26.74L38.2 25C37.1 23.08 35.54 22.34 33.4 22.34C30.38 22.34 28.44 24.26 28.44 26.8C28.44 29.56 30.06 30.86 32.5 31.9L33.34 32.26C34.9 32.94 35.82 33.36 35.82 34.52C35.82 35.48 34.92 36.18 33.52 36.18C31.86 36.18 30.9 35.32 30.18 34.12L27.42 35.72Z" fill="#202020"/>
</svg>
