<svg width="73" height="64" viewBox="0 0 73 64" fill="none" xmlns="http://www.w3.org/2000/svg">
<path d="M0 21.8295V24.8062L0.5 27.7829L1.5 30.7597L3 32.7442L5 34.7287L8.5 37.2093L12 39.1938L15 41.1783L18 42.6667L21 44.155L23 46.6357L25 48.6202L27 51.5969L29 54.0775L31.5 57.5504L34 60.031L37.5 62.0155L40 63.0078L43.5 64H48L51 63.5039L54.5 63.0078L57.5 62.0155L59.5 60.5271L62 58.5426L64 57.0543L66 54.5736L67 52.093L68 49.6124L69.5 47.6279L70 46.1395L71 45.1473L72 43.1628L72.5 39.6899L73 36.2171V32.7442V29.7674V26.7907L72.5 23.814L71 20.8372L69.5 17.8605L68 14.8837L66 12.8992L64.5 10.9147L62.5 8.93023L60.5 6.94574L58.5 5.45736L56.5 4.46512L54 3.47287L51 1.9845L48 0.992248L45 0.496124L42.5 0H41H37H34.5L32.5 0.496124L29 0.992248L25 1.9845L22.5 2.97674L19.5 3.96899L16 5.45736L13 6.94574L9.5 8.93023L7.5 9.92248L5 11.907L3.5 13.8915L1.5 16.8682L0.5 18.8527L0 21.8295Z" fill="#2B72F5" fill-opacity="0.1"/>
<path d="M8.5 46.1395V45.1473L9 44.6512H9.5L10.0306 44.8604L11 45.1473H12H13L14.5 46.1395L15.5 47.1318L16.5 47.6279L17.5 48.124L18.5 49.1163L19.5 50.1085L20 51.1008L20.25 51.5969V52.0209L20.2006 52.3901L19.9012 52.6872L19.5 53.0853L19 53.5814L18.5 53.8295L18.25 53.9535L18.125 54.0155C18.125 54.0155 18.0522 54.0616 18 54.0775C17.9067 54.106 17.75 54.0775 17.75 54.0775H17.5H17H16.5H15H13.5L12.5 53.5814L11.5 53.0853L11 52.5891L10 51.5969L9.5 50.6047L9 50.1085V49.1163L8.5 48.124V47.1318V46.1395Z" fill="#2B72F5" fill-opacity="0.1"/>
<path d="M43 24.5001C43 26.2601 41.7 27.7201 40 27.9601V31.0001C40 31.5305 39.7893 32.0392 39.4142 32.4143C39.0391 32.7894 38.5304 33.0001 38 33.0001H34.2V32.7001C34.2 31.984 33.9155 31.2973 33.4092 30.7909C32.9028 30.2845 32.2161 30.0001 31.5 30.0001C30 30.0001 28.8 31.2101 28.8 32.7001V33.0001H25C24.4696 33.0001 23.9609 32.7894 23.5858 32.4143C23.2107 32.0392 23 31.5305 23 31.0001V27.2001H23.3C24.79 27.2001 26 26.0001 26 24.5001C26 23 24.79 21.8 23.3 21.8H23V18C23 17.4696 23.2107 16.9609 23.5858 16.5858C23.9609 16.2107 24.4696 16 25 16H28.04C28.28 14.3 29.74 13 31.5 13C33.26 13 34.72 14.3 34.96 16H38C38.5304 16 39.0391 16.2107 39.4142 16.5858C39.7893 16.9609 40 17.4696 40 18V21.04C41.7 21.28 43 22.74 43 24.5001ZM38 26.0001H39.5C39.8978 26.0001 40.2794 25.842 40.5607 25.5607C40.842 25.2794 41 24.8979 41 24.5001C41 24.1022 40.842 23.7207 40.5607 23.4394C40.2794 23.1581 39.8978 23.0001 39.5 23H38V18H33V16.5C33 16.1022 32.842 15.7207 32.5607 15.4394C32.2794 15.158 31.8978 15 31.5 15C31.1022 15 30.7206 15.158 30.4393 15.4394C30.158 15.7207 30 16.1022 30 16.5V18H25V20.12C26.76 20.8 28 22.5 28 24.5001C28 26.5001 26.75 28.2001 25 28.8801V31.0001H27.12C27.8 29.2501 29.5 28.0001 31.5 28.0001C33.5 28.0001 35.2 29.2501 35.88 31.0001H38V26.0001Z" fill="#2B72F5" fill-opacity="0.6"/>
<path d="M59 24.5001C59 26.2601 57.7 27.7201 56 27.9601V31.0001C56 31.5305 55.7893 32.0392 55.4142 32.4143C55.0391 32.7894 54.5304 33.0001 54 33.0001H50.2V32.7001C50.2 31.984 49.9155 31.2973 49.4092 30.7909C48.9028 30.2845 48.2161 30.0001 47.5 30.0001C46 30.0001 44.8 31.2101 44.8 32.7001V33.0001H41C40.4696 33.0001 39.9609 32.7894 39.5858 32.4143C39.2107 32.0392 39 31.5305 39 31.0001V27.2001H39.3C40.79 27.2001 42 26.0001 42 24.5001C42 23 40.79 21.8 39.3 21.8H39V18C39 17.4696 39.2107 16.9609 39.5858 16.5858C39.9609 16.2107 40.4696 16 41 16H44.04C44.28 14.3 45.74 13 47.5 13C49.26 13 50.72 14.3 50.96 16H54C54.5304 16 55.0391 16.2107 55.4142 16.5858C55.7893 16.9609 56 17.4696 56 18V21.04C57.7 21.28 59 22.74 59 24.5001ZM54 26.0001H55.5C55.8978 26.0001 56.2794 25.842 56.5607 25.5607C56.842 25.2794 57 24.8979 57 24.5001C57 24.1022 56.842 23.7207 56.5607 23.4394C56.2794 23.1581 55.8978 23.0001 55.5 23H54V18H49V16.5C49 16.1022 48.842 15.7207 48.5607 15.4394C48.2794 15.158 47.8978 15 47.5 15C47.1022 15 46.7206 15.158 46.4393 15.4394C46.158 15.7207 46 16.1022 46 16.5V18H41V20.12C42.76 20.8 44 22.5 44 24.5001C44 26.5001 42.75 28.2001 41 28.8801V31.0001H43.12C43.8 29.2501 45.5 28.0001 47.5 28.0001C49.5 28.0001 51.2 29.2501 51.88 31.0001H54V26.0001Z" fill="#2B72F5" fill-opacity="0.9"/>
<path d="M59 40.5001C59 42.2601 57.7 43.7201 56 43.9601V47.0001C56 47.5305 55.7893 48.0392 55.4142 48.4143C55.0391 48.7894 54.5304 49.0001 54 49.0001H50.2V48.7001C50.2 47.984 49.9155 47.2973 49.4092 46.7909C48.9028 46.2845 48.2161 46.0001 47.5 46.0001C46 46.0001 44.8 47.2101 44.8 48.7001V49.0001H41C40.4696 49.0001 39.9609 48.7894 39.5858 48.4143C39.2107 48.0392 39 47.5305 39 47.0001V43.2001H39.3C40.79 43.2001 42 42.0001 42 40.5001C42 39 40.79 37.8 39.3 37.8H39V34C39 33.4696 39.2107 32.9609 39.5858 32.5858C39.9609 32.2107 40.4696 32 41 32H44.04C44.28 30.3 45.74 29 47.5 29C49.26 29 50.72 30.3 50.96 32H54C54.5304 32 55.0391 32.2107 55.4142 32.5858C55.7893 32.9609 56 33.4696 56 34V37.04C57.7 37.28 59 38.74 59 40.5001ZM54 42.0001H55.5C55.8978 42.0001 56.2794 41.842 56.5607 41.5607C56.842 41.2794 57 40.8979 57 40.5001C57 40.1022 56.842 39.7207 56.5607 39.4394C56.2794 39.1581 55.8978 39.0001 55.5 39H54V34H49V32.5C49 32.1022 48.842 31.7207 48.5607 31.4394C48.2794 31.158 47.8978 31 47.5 31C47.1022 31 46.7206 31.158 46.4393 31.4394C46.158 31.7207 46 32.1022 46 32.5V34H41V36.12C42.76 36.8 44 38.5 44 40.5001C44 42.5001 42.75 44.2001 41 44.8801V47.0001H43.12C43.8 45.2501 45.5 44.0001 47.5 44.0001C49.5 44.0001 51.2 45.2501 51.88 47.0001H54V42.0001Z" fill="#2B72F5" fill-opacity="0.4"/>
</svg>
