<svg width="174" height="124" viewBox="0 0 174 124" fill="none" xmlns="http://www.w3.org/2000/svg">
<path d="M45.6848 0C53.1143 0 57.9495 7.81489 54.6334 14.4633L37.1084 49.6H64.2168C69.7396 49.6 74.2168 54.0772 74.2168 59.6V114C74.2168 119.523 69.7396 124 64.2168 124H10C4.47715 124 0 119.523 0 114V49.6L21.9774 5.53668C23.6696 2.14399 27.1348 0 30.9261 0H45.6848ZM144.64 0C152.07 0 156.905 7.81489 153.589 14.4633L136.064 49.6H163.172C168.695 49.6 173.172 54.0772 173.172 59.6V114C173.172 119.523 168.695 124 163.172 124H108.956C103.433 124 98.9557 119.523 98.9557 114V49.6L120.933 5.53668C122.625 2.14399 126.09 0 129.882 0H144.64Z" fill="#202020" fill-opacity="0.05"/>
</svg>
