<svg width="48" height="42" viewBox="0 0 48 42" fill="none" xmlns="http://www.w3.org/2000/svg">
<g clip-path="url(#clip0)">
<path d="M24 25.2075C26.3628 25.2075 28.2783 23.3237 28.2783 21C28.2783 18.6762 26.3628 16.7925 24 16.7925C21.6372 16.7925 19.7218 18.6762 19.7218 21C19.7218 23.3237 21.6372 25.2075 24 25.2075Z" fill="#202020"/>
<path d="M24 29.6202C36.6785 29.6202 46.9565 25.7608 46.9565 21C46.9565 16.2392 36.6785 12.3798 24 12.3798C11.3215 12.3798 1.04347 16.2392 1.04347 21C1.04347 25.7608 11.3215 29.6202 24 29.6202Z" stroke="#202020"/>
<path d="M16.4091 25.3101C22.7484 36.1085 31.2859 42.9325 35.4783 40.5521C39.6706 38.1717 37.9302 27.4882 31.5909 16.6899C25.2516 5.89158 16.7141 -0.932478 12.5218 1.44793C8.32942 3.82835 10.0698 14.5118 16.4091 25.3101Z" stroke="#202020"/>
<path d="M16.4091 16.6899C10.0699 27.4882 8.32942 38.1717 12.5218 40.5521C16.7141 42.9325 25.2517 36.1085 31.5909 25.3101C37.9302 14.5118 39.6706 3.82835 35.4783 1.44794C31.2859 -0.932472 22.7484 5.89159 16.4091 16.6899Z" stroke="#202020"/>
</g>
<defs>
<clipPath id="clip0">
<rect width="48" height="42" fill="white"/>
</clipPath>
</defs>
</svg>
