<svg width="252" height="36" viewBox="0 0 252 36" fill="none" xmlns="http://www.w3.org/2000/svg">
  <path fill-rule="evenodd" clip-rule="evenodd" d="M184.888 11.2062L181.707 20.3037H188.158L184.993 11.2062H184.888ZM187.108 7.19925L195.21 28.7997H191.099L189.194 23.4373H180.717L178.887 28.7997H174.806L182.907 7.19925H187.108Z" fill="#767373"/>
  <path fill-rule="evenodd" clip-rule="evenodd" d="M197.06 13.3147H209.378V14.7762L201.291 25.9077H209.422V28.7997H196.49V27.0672L204.457 16.2067H197.06V13.3147Z" fill="#767373"/>
  <path fill-rule="evenodd" clip-rule="evenodd" d="M225.402 13.3147V28.7997H221.741V26.7657H221.681C221.201 27.4692 220.558 28.0187 219.753 28.4152C218.948 28.8117 218.045 29.0107 217.045 29.0107C215.254 29.0107 213.892 28.5007 212.956 27.4812C212.021 26.4622 211.554 24.8782 211.554 22.7292V13.3147H215.229V22.2922C215.229 23.5977 215.487 24.5792 216.002 25.2372C216.517 25.8947 217.295 26.2237 218.336 26.2237C219.366 26.2237 220.19 25.8597 220.811 25.1317C221.431 24.4037 221.741 23.4517 221.741 22.2772V13.3147H225.402Z" fill="#767373"/>
  <path fill-rule="evenodd" clip-rule="evenodd" d="M235.836 13.0588C236.126 13.0588 236.386 13.0788 236.616 13.1188C236.846 13.1593 237.041 13.2093 237.201 13.2698V16.9603C237.011 16.8193 236.734 16.6868 236.369 16.5608C236.003 16.4353 235.561 16.3728 235.041 16.3728C234.15 16.3728 233.398 16.7493 232.783 17.5023C232.168 18.2558 231.86 19.4153 231.86 20.9818V28.7993H228.229V13.3148H231.86V15.7553H231.92C232.25 14.9113 232.75 14.2513 233.42 13.7743C234.091 13.2978 234.895 13.0588 235.836 13.0588Z" fill="#767373"/>
  <path fill-rule="evenodd" clip-rule="evenodd" d="M248.005 19.4905C248.005 18.2855 247.727 17.367 247.173 16.734C246.617 16.1015 245.835 15.7855 244.824 15.7855C243.954 15.7855 243.175 16.0995 242.484 16.727C241.794 17.3545 241.334 18.2755 241.104 19.4905H248.005ZM250.331 24.898V27.896C249.731 28.2775 248.946 28.586 247.975 28.822C247.005 29.058 245.97 29.176 244.87 29.176C242.519 29.176 240.691 28.4785 239.386 27.0825C238.081 25.687 237.428 23.7435 237.428 21.253C237.428 18.8535 238.126 16.877 239.521 15.326C240.916 13.774 242.684 12.999 244.824 12.999C246.956 12.999 248.613 13.6535 249.798 14.964C250.983 16.2745 251.576 18.0845 251.576 20.3945V22.157H241.014C241.173 23.7135 241.671 24.8 242.507 25.4175C243.342 26.0355 244.42 26.344 245.74 26.344C246.61 26.344 247.44 26.211 248.23 25.945C249.02 25.679 249.721 25.33 250.331 24.898Z" fill="#767373"/>
  <path fill-rule="evenodd" clip-rule="evenodd" d="M160.836 16.2976H155.428V28.7996H151.753V16.2976H149.172V13.3151H151.753V11.1611C151.753 9.5341 152.28 8.2011 153.335 7.1621C154.39 6.1221 155.743 5.6026 157.393 5.6026C157.834 5.6026 158.223 5.6251 158.564 5.6706C158.904 5.7161 159.204 5.7836 159.464 5.8736V9.0221C159.344 8.9521 159.134 8.8666 158.834 8.7661C158.534 8.6656 158.189 8.6156 157.799 8.6156C157.038 8.6156 156.453 8.8536 156.043 9.3306C155.633 9.8081 155.428 10.5136 155.428 11.4471V13.3151H160.836V9.8351L164.481 8.7211V13.3151H168.158V16.2976H164.481V23.5421C164.481 24.4966 164.654 25.1696 164.999 25.5606C165.344 25.9526 165.887 26.1481 166.627 26.1481C166.837 26.1481 167.089 26.0986 167.385 25.9976C167.679 25.8976 167.937 25.7771 168.158 25.6366V28.6486C167.927 28.7796 167.544 28.8996 167.009 29.0106C166.474 29.1206 165.947 29.1761 165.426 29.1761C163.896 29.1761 162.748 28.7671 161.984 27.9486C161.218 27.1301 160.836 25.8976 160.836 24.2501V16.2976ZM136.728 21.1626C136.728 22.7796 137.093 24.0146 137.823 24.8686C138.553 25.7221 139.598 26.1481 140.958 26.1481C142.279 26.1481 143.284 25.7221 143.974 24.8686C144.664 24.0146 145.009 22.7491 145.009 21.0721C145.009 19.4056 144.652 18.1476 143.937 17.2991C143.221 16.4506 142.218 16.0266 140.929 16.0266C139.598 16.0266 138.565 16.4706 137.83 17.3596C137.095 18.2476 136.728 19.5161 136.728 21.1626ZM132.947 21.2831C132.947 18.7226 133.667 16.6941 135.107 15.1976C136.547 13.7016 138.548 12.9536 141.108 12.9536C143.519 12.9536 145.402 13.6741 146.757 15.1151C148.113 16.5566 148.79 18.5016 148.79 20.9521C148.79 23.4626 148.07 25.4606 146.63 26.9466C145.189 28.4331 143.229 29.1761 140.748 29.1761C138.358 29.1761 136.46 28.4711 135.055 27.0596C133.649 25.6491 132.947 23.7236 132.947 21.2831ZM124.77 17.3821C124.77 17.9041 124.936 18.3131 125.266 18.6096C125.595 18.9056 126.326 19.2796 127.456 19.7316C128.906 20.3141 129.924 20.9696 130.509 21.6976C131.094 22.4256 131.387 23.3066 131.387 24.3411C131.387 25.7971 130.829 26.9671 129.714 27.8501C128.599 28.7346 127.091 29.1761 125.191 29.1761C124.551 29.1761 123.842 29.0986 123.067 28.9426C122.292 28.7871 121.635 28.5886 121.094 28.3476V24.7631C121.755 25.2246 122.465 25.5911 123.225 25.8621C123.985 26.1336 124.675 26.2691 125.296 26.2691C126.115 26.2691 126.721 26.1536 127.111 25.9226C127.501 25.6916 127.696 25.3051 127.696 24.7631C127.696 24.2606 127.493 23.8361 127.089 23.4901C126.684 23.1431 125.916 22.7441 124.785 22.2921C123.445 21.7301 122.495 21.0976 121.935 20.3946C121.375 19.6916 121.094 18.7981 121.094 17.7131C121.094 16.3176 121.647 15.1701 122.752 14.2711C123.857 13.3726 125.291 12.9236 127.051 12.9236C127.591 12.9236 128.196 12.9836 128.866 13.1036C129.536 13.2246 130.097 13.3806 130.547 13.5711V17.0356C130.067 16.7141 129.506 16.4381 128.866 16.2066C128.226 15.9756 127.591 15.8606 126.961 15.8606C126.271 15.8606 125.733 15.9961 125.348 16.2671C124.963 16.5381 124.77 16.9101 124.77 17.3821ZM107.307 21.1626C107.307 22.7796 107.672 24.0146 108.402 24.8686C109.132 25.7221 110.178 26.1481 111.538 26.1481C112.858 26.1481 113.863 25.7221 114.553 24.8686C115.244 24.0146 115.589 22.7491 115.589 21.0721C115.589 19.4056 115.231 18.1476 114.516 17.2991C113.801 16.4506 112.798 16.0266 111.508 16.0266C110.178 16.0266 109.145 16.4706 108.41 17.3596C107.674 18.2476 107.307 19.5161 107.307 21.1626ZM103.526 21.2831C103.526 18.7226 104.246 16.6941 105.686 15.1976C107.127 13.7016 109.127 12.9536 111.688 12.9536C114.099 12.9536 115.981 13.6741 117.337 15.1151C118.692 16.5566 119.37 18.5016 119.37 20.9521C119.37 23.4626 118.649 25.4606 117.209 26.9466C115.769 28.4331 113.808 29.1761 111.328 29.1761C108.937 29.1761 107.039 28.4711 105.634 27.0596C104.229 25.6491 103.526 23.7236 103.526 21.2831ZM101.964 13.0586C102.254 13.0586 102.515 13.0791 102.744 13.1196C102.974 13.1596 103.169 13.2091 103.33 13.2696V16.9601C103.14 16.8196 102.862 16.6866 102.497 16.5611C102.132 16.4351 101.689 16.3726 101.169 16.3726C100.279 16.3726 99.5264 16.7491 98.9113 17.5021C98.2963 18.2556 97.9885 19.4151 97.9885 20.9816V28.7996H94.3574V13.3151H97.9885V15.7551H98.0483C98.3784 14.9116 98.8785 14.2516 99.5488 13.7741C100.219 13.2976 101.024 13.0586 101.964 13.0586ZM88.0415 26.1481C88.5813 26.1481 89.1765 26.0231 89.8264 25.7721C90.4768 25.5206 91.0769 25.1896 91.6272 24.7776V28.1666C91.047 28.4981 90.3892 28.7491 89.6541 28.9196C88.9195 29.0906 88.1112 29.1761 87.2312 29.1761C84.9602 29.1761 83.115 28.4556 81.6952 27.0146C80.2743 25.5736 79.5646 23.7336 79.5646 21.4946C79.5646 19.0036 80.2897 16.9531 81.74 15.3406C83.1902 13.7291 85.2456 12.9236 87.9065 12.9236C88.5868 12.9236 89.2741 13.0116 89.9693 13.1871C90.6646 13.3626 91.2169 13.5656 91.6272 13.7966V17.2916C91.067 16.8796 90.4942 16.5611 89.9091 16.3346C89.3244 16.1091 88.7263 15.9961 88.1162 15.9961C86.6859 15.9961 85.5309 16.4631 84.6504 17.3971C83.7704 18.3306 83.3302 19.5911 83.3302 21.1776C83.3302 22.7441 83.7525 23.9646 84.5981 24.8381C85.4433 25.7116 86.5912 26.1481 88.0415 26.1481ZM73.3981 28.7996H77.0287V13.3151H73.3981V28.7996ZM73.0231 8.8416C73.0231 8.2391 73.2407 7.7341 73.676 7.3276C74.1108 6.9206 74.6282 6.7176 75.2283 6.7176C75.8683 6.7176 76.3992 6.9261 76.819 7.3426C77.2393 7.7591 77.449 8.2591 77.449 8.8416C77.449 9.4336 77.2339 9.9311 76.8041 10.3321C76.3738 10.7341 75.8489 10.9346 75.2283 10.9346C74.6083 10.9346 74.0859 10.7316 73.661 10.3251C73.2352 9.9181 73.0231 9.4236 73.0231 8.8416ZM69.899 7.1996V28.7996H66.1633V11.8691H66.103L59.4265 28.7996H56.9514L50.1095 11.8691H50.0647V28.7996H46.6139V7.1996H51.9701L58.1516 23.2111H58.2412L64.7678 7.1996H69.899Z" fill="#767373"/>
  <path fill-rule="evenodd" clip-rule="evenodd" d="M0.00294495 17.113H17.0448V0.00350952H0.00294495V17.113Z" fill="#F25022"/>
  <path fill-rule="evenodd" clip-rule="evenodd" d="M18.8148 17.1095H35.8567V0H18.8148V17.1095Z" fill="#7FBA00"/>
  <path fill-rule="evenodd" clip-rule="evenodd" d="M0 35.999H17.0419V18.8895H0V35.999Z" fill="#00A4EF"/>
  <path fill-rule="evenodd" clip-rule="evenodd" d="M18.8148 35.999H35.8567V18.8895H18.8148V35.999Z" fill="#FFB900"/>
</svg>
